<?xml version="1.0" standalone="no"?>
<!DOCTYPE svg PUBLIC "-//W3C//DTD SVG 20010904//EN"
 "http://www.w3.org/TR/2001/REC-SVG-20010904/DTD/svg10.dtd">
<svg version="1.0" xmlns="http://www.w3.org/2000/svg"
 width="500.000000pt" height="500.000000pt" viewBox="0 0 500.000000 500.000000"
 preserveAspectRatio="xMidYMid meet">

<g transform="translate(0.000000,500.000000) scale(0.100000,-0.100000)"
fill="#000000" stroke="none">
<path d="M2255 4274 c-126 -23 -267 -70 -383 -130 -161 -82 -153 -71 -159
-218 l-6 -124 28 -23 c15 -13 33 -29 39 -35 6 -6 73 -14 148 -17 74 -4 159
-12 187 -18 48 -10 53 -9 83 16 24 20 40 26 69 24 32 -3 44 3 86 41 121 111
173 151 297 229 91 57 250 138 304 155 12 4 22 11 22 15 0 7 -100 42 -192 66
-143 37 -375 45 -523 19z"/>
<path d="M3033 4108 c-84 -94 -211 -312 -272 -465 -30 -77 -31 -84 -17 -105 9
-12 16 -32 16 -44 0 -15 12 -30 38 -45 87 -53 234 -170 326 -261 54 -54 102
-96 106 -93 5 3 19 1 33 -4 21 -8 28 -4 63 42 103 136 179 279 230 431 l33 98
-34 52 c-91 137 -229 273 -374 368 -82 53 -117 60 -148 26z"/>
<path d="M2779 4001 c-137 -76 -210 -129 -346 -250 -73 -63 -90 -97 -55 -107
9 -3 60 -22 112 -42 93 -36 97 -37 133 -22 20 8 37 21 37 28 0 35 111 263 176
365 24 37 44 70 44 72 0 11 -19 3 -101 -44z"/>
<path d="M1565 3925 c-89 -89 -203 -230 -193 -240 2 -2 32 2 68 10 36 7 86 16
113 20 26 3 47 11 47 17 0 6 7 19 15 28 13 14 15 39 13 121 l-3 104 -60 -60z"/>
<path d="M1767 3616 c-26 -33 -26 -37 -16 -88 17 -87 79 -277 112 -346 l31
-65 15 34 c57 131 122 247 197 356 46 67 60 94 51 101 -16 13 -130 30 -257 38
l-105 6 -28 -36z"/>
<path d="M1490 3619 c-25 -5 -76 -17 -113 -25 -77 -18 -77 -18 -127 -156 -51
-137 -71 -247 -76 -415 l-5 -153 68 -49 c87 -64 253 -150 366 -190 93 -32 127
-38 127 -21 0 6 11 15 24 20 17 6 25 19 30 47 4 21 16 86 27 144 20 99 20 108
5 138 -14 25 -15 39 -6 71 9 32 8 46 -6 72 -35 68 -97 248 -124 363 -16 66
-34 121 -41 124 -6 2 -19 12 -27 22 -18 21 -49 23 -122 8z"/>
<path d="M2306 3555 c-11 -8 -32 -15 -46 -15 -21 0 -36 -13 -71 -62 -61 -85
-108 -165 -163 -277 -50 -103 -53 -116 -31 -145 17 -23 20 -69 5 -96 -8 -14
-2 -30 27 -72 49 -72 105 -140 181 -219 55 -58 69 -67 98 -67 20 0 44 -8 54
-17 15 -14 29 -16 62 -11 75 12 108 26 108 47 0 11 12 31 26 46 14 14 23 32
20 40 -3 8 -11 76 -16 151 -11 147 -1 351 24 472 13 60 12 67 -5 89 -11 13
-19 32 -19 42 0 21 -41 44 -148 83 -85 30 -81 30 -106 11z"/>
<path d="M3610 3506 c-40 -122 -133 -289 -237 -426 -20 -26 -32 -52 -29 -63 2
-10 1 -31 -4 -46 -7 -24 -2 -38 32 -87 77 -115 173 -319 213 -454 l23 -74 31
62 c41 81 75 175 103 287 20 79 23 115 23 285 -1 179 -3 204 -28 303 -25 99
-79 250 -97 270 -4 5 -18 -21 -30 -57z"/>
<path d="M2698 3393 c-44 -11 -76 -427 -48 -623 9 -67 33 -99 73 -100 42 0
287 148 376 227 42 38 44 42 45 97 l1 57 -95 92 c-52 51 -122 113 -155 138
-59 46 -171 120 -177 118 -2 -1 -11 -3 -20 -6z"/>
<path d="M1897 2824 c-36 -167 -36 -184 -4 -231 l30 -41 111 -6 c107 -6 166
-5 166 3 0 2 -32 37 -70 78 -62 66 -154 182 -201 254 -15 22 -16 19 -32 -57z"/>
<path d="M3150 2849 c-69 -61 -213 -155 -322 -210 -69 -34 -98 -55 -98 -67 0
-10 -7 -27 -15 -39 -13 -19 -12 -29 17 -112 23 -66 36 -91 48 -91 26 0 71 -39
86 -75 11 -28 21 -34 106 -58 128 -38 213 -55 345 -69 129 -13 122 -16 189 75
l43 57 -19 68 c-48 172 -108 314 -203 474 -52 87 -52 87 -92 87 -32 0 -49 -7
-85 -40z"/>
<path d="M1195 2729 c35 -164 116 -348 211 -484 58 -84 185 -218 260 -276 54
-41 196 -130 201 -125 1 1 -8 38 -22 82 -42 141 -75 338 -75 460 0 43 -4 54
-23 67 -13 9 -29 28 -36 44 -10 24 -26 32 -114 61 -107 34 -261 107 -337 158
-75 51 -73 51 -65 13z"/>
<path d="M2466 2511 l-68 -16 63 -45 c58 -41 202 -130 211 -130 2 0 -9 39 -25
88 -26 81 -31 88 -66 105 -21 9 -39 16 -42 16 -2 -1 -35 -9 -73 -18z"/>
<path d="M1875 2460 c-16 -18 -19 -35 -17 -103 6 -189 82 -518 131 -568 16
-17 156 -59 266 -81 94 -19 354 -16 458 5 82 17 252 69 265 82 3 3 -4 18 -16
33 -21 26 -137 198 -177 263 -12 19 -30 34 -45 36 -32 5 -62 35 -76 76 -8 25
-25 39 -75 66 -35 19 -85 49 -112 67 -26 19 -49 34 -52 34 -3 0 -15 9 -27 20
-18 16 -30 18 -80 13 -57 -6 -59 -5 -91 29 l-33 35 -150 7 c-144 6 -151 5
-169 -14z"/>
<path d="M2865 2119 c25 -47 128 -197 169 -245 l34 -39 43 24 c40 22 157 99
169 111 3 3 22 20 43 38 21 17 33 32 28 32 -87 0 -382 64 -485 105 -17 8 -17
7 -1 -26z"/>
<path d="M4410 1020 l0 -250 25 0 c24 0 25 2 25 63 0 51 4 68 19 81 11 10 24
15 29 12 4 -3 35 -39 68 -80 53 -68 62 -76 93 -76 31 0 33 1 19 18 -59 69
-138 172 -138 178 0 5 33 41 72 81 l72 73 -36 0 c-33 0 -44 -9 -117 -86 l-81
-87 0 162 0 161 -25 0 -25 0 0 -250z"/>
<path d="M274 1236 c-11 -29 0 -51 26 -51 21 0 25 5 25 30 0 24 -5 31 -23 33
-13 2 -24 -3 -28 -12z"/>
<path d="M2960 1228 c0 -7 27 -113 62 -236 l62 -223 30 3 c30 3 31 5 86 183
31 99 58 186 61 193 2 7 31 -74 64 -180 60 -192 61 -193 91 -196 l30 -3 62
220 c34 121 62 227 62 235 0 10 -9 16 -24 16 -28 0 -27 3 -81 -200 -19 -74
-39 -148 -44 -165 l-8 -30 -7 30 c-5 17 -31 104 -60 195 -51 164 -52 165 -82
168 l-31 3 -51 -168 c-28 -92 -54 -181 -58 -198 -6 -24 -16 6 -59 165 -49 190
-51 195 -78 198 -17 2 -27 -1 -27 -10z"/>
<path d="M930 1174 c-6 -14 -10 -29 -10 -34 0 -5 -13 -16 -30 -25 -37 -19 -38
-33 -3 -37 l28 -3 2 -129 c2 -117 4 -131 24 -152 38 -41 139 -45 139 -6 0 14
-9 17 -41 17 -62 0 -69 17 -69 157 l0 118 55 0 c48 0 55 2 55 20 0 18 -7 20
-55 20 l-55 0 0 40 c0 47 -24 56 -40 14z"/>
<path d="M2755 1164 c-5 -28 -13 -39 -36 -47 -36 -14 -38 -37 -4 -37 l25 0 0
-114 c0 -130 11 -171 51 -191 50 -26 119 -17 119 15 0 14 -8 17 -41 16 -62 -1
-69 15 -69 156 l0 118 55 0 c48 0 55 2 55 20 0 18 -7 20 -55 20 l-55 0 0 40
c0 33 -4 40 -19 40 -14 0 -21 -10 -26 -36z"/>
<path d="M625 1125 c-5 -2 -21 -6 -35 -9 -14 -3 -35 -14 -47 -25 l-21 -20 -6
25 c-4 15 -14 24 -26 24 -19 0 -20 -7 -21 -152 0 -84 -2 -163 -3 -175 -2 -19
2 -23 26 -23 l28 0 0 115 c0 128 12 169 56 185 46 18 93 12 119 -15 24 -23 25
-29 25 -155 l0 -130 30 0 30 0 -1 123 c0 134 -11 181 -49 208 -24 17 -85 31
-105 24z"/>
<path d="M1275 1118 c-75 -17 -117 -78 -118 -172 -1 -74 20 -122 67 -154 42
-28 125 -39 184 -23 35 10 42 16 42 36 0 22 -2 24 -26 15 -41 -16 -136 -12
-163 6 -21 15 -51 69 -51 93 0 6 51 12 128 13 l127 3 -2 49 c-3 99 -85 157
-188 134z m100 -55 c16 -16 35 -55 35 -74 0 -5 -44 -9 -99 -9 l-98 0 5 25 c11
61 116 100 157 58z"/>
<path d="M1717 1120 c-16 -5 -39 -20 -52 -34 -31 -33 -35 -33 -35 4 0 25 -4
30 -25 30 l-25 0 0 -175 0 -175 30 0 30 0 0 110 c0 125 11 160 60 185 16 8 42
15 58 15 37 0 52 35 18 44 -24 7 -23 7 -59 -4z"/>
<path d="M2435 1120 c-75 -17 -115 -70 -122 -163 -9 -128 68 -204 197 -193 85
6 100 13 100 43 0 20 -4 24 -17 18 -35 -15 -133 -18 -163 -5 -32 13 -60 55
-60 90 0 19 6 20 125 20 l125 0 0 49 c0 99 -85 164 -185 141z m87 -51 c16 -9
48 -64 48 -84 0 -3 -45 -5 -100 -5 -63 0 -100 4 -100 10 0 20 30 69 47 79 24
14 79 14 105 0z"/>
<path d="M3777 1120 c-89 -17 -130 -78 -125 -187 5 -105 50 -158 144 -169 100
-12 174 45 189 147 20 136 -79 235 -208 209z m101 -56 c68 -47 71 -196 4 -240
-39 -26 -106 -23 -137 6 -54 51 -56 171 -4 222 22 22 37 28 71 28 24 0 54 -7
66 -16z"/>
<path d="M270 945 l0 -175 30 0 30 0 0 175 0 175 -30 0 -30 0 0 -175z"/>
<path d="M1888 945 l-3 -175 28 0 27 0 0 110 c0 126 14 174 55 190 42 16 90
12 119 -11 26 -20 26 -22 26 -155 l0 -134 30 0 30 0 0 118 c0 194 -22 232
-135 232 -48 0 -68 -5 -89 -21 -27 -21 -46 -18 -46 7 0 8 -9 14 -20 14 -18 0
-19 -9 -22 -175z"/>
<path d="M4109 1098 c-1 -19 0 -269 1 -315 0 -7 11 -13 25 -13 l25 0 0 115 0
115 33 35 c22 25 44 38 72 42 37 6 54 17 55 36 0 4 -20 7 -45 7 -35 0 -51 -6
-78 -30 -37 -32 -47 -30 -47 7 0 32 -40 33 -41 1z"/>
</g>
</svg>
